<svg width="26" height="26" viewBox="0 0 26 26" fill="none" xmlns="http://www.w3.org/2000/svg">
<path d="M11.0713 1.5H14.3486C14.882 1.5 15.3757 1.78352 15.6445 2.24414L15.9697 2.80078C16.7763 4.18251 18.2556 5.03206 19.8555 5.03223H20.335C20.8592 5.03228 21.3453 5.30665 21.6172 5.75488L23.2764 8.49023C23.5883 9.00448 23.5594 9.65605 23.2031 10.1406C22.1165 11.6186 22.0398 13.6094 23.0088 15.167L23.3086 15.6484C23.6174 16.145 23.6092 16.776 23.2881 17.2646L21.4434 20.0713C21.1781 20.4748 20.7002 20.6845 20.2236 20.6064C18.4976 20.3237 16.7754 21.134 15.8936 22.6445L15.6445 23.0723C15.3757 23.5329 14.882 23.8164 14.3486 23.8164H11.0713C10.5055 23.8164 9.98767 23.4981 9.73242 22.9932L9.61133 22.7539C8.84562 21.2392 7.29297 20.2843 5.5957 20.2842H4.82129C4.25558 20.2842 3.7377 19.9658 3.48242 19.4609L2.16992 16.8652C1.91484 16.3606 1.96584 15.7553 2.30078 15.2998L2.38574 15.1836C3.47604 13.7008 3.55334 11.7034 2.58105 10.1406L2.27246 9.64453C1.96728 9.154 1.97131 8.53184 2.28223 8.04492L3.86914 5.55859C4.16659 5.09277 4.69695 4.82819 5.24805 4.87012L5.32617 4.87598C7.14196 5.01413 8.86203 4.04413 9.68359 2.41895L9.73242 2.32324C9.98767 1.81831 10.5055 1.5 11.0713 1.5Z" stroke="#535353" stroke-width="3"/>
<ellipse cx="12.7976" cy="12.6582" rx="4.7534" ry="4.70163" stroke="#535353" stroke-width="3"/>
</svg>
